<?xml version="1.0" encoding="utf-8" standalone="no"?>
<!DOCTYPE svg PUBLIC "-//W3C//DTD SVG 1.1//EN"
  "http://www.w3.org/Graphics/SVG/1.1/DTD/svg11.dtd">
<svg xmlns:xlink="http://www.w3.org/1999/xlink" width="410.263937pt" height="267.543187pt" viewBox="0 0 410.263937 267.543187" xmlns="http://www.w3.org/2000/svg" version="1.1">
 <metadata>
  <rdf:RDF xmlns:dc="http://purl.org/dc/elements/1.1/" xmlns:cc="http://creativecommons.org/ns#" xmlns:rdf="http://www.w3.org/1999/02/22-rdf-syntax-ns#">
   <cc:Work>
    <dc:type rdf:resource="http://purl.org/dc/dcmitype/StillImage"/>
    <dc:date>2026-07-15T23:08:38.907024</dc:date>
    <dc:format>image/svg+xml</dc:format>
    <dc:creator>
     <cc:Agent>
      <dc:title>Matplotlib v3.10.8, https://matplotlib.org/</dc:title>
     </cc:Agent>
    </dc:creator>
   </cc:Work>
  </rdf:RDF>
 </metadata>
 <defs>
  <style type="text/css">*{stroke-linejoin: round; stroke-linecap: butt}</style>
 </defs>
 <g id="figure_1">
  <g id="patch_1">
   <path d="M 0 267.543187 
L 410.263937 267.543187 
L 410.263937 0 
L 0 0 
z
" style="fill: #ffffff"/>
  </g>
  <g id="axes_1">
   <g id="patch_2">
    <path d="M 44.427969 135.224819 
L 88.621569 135.224819 
Q 96.656769 135.224819 96.656769 130.567859 
L 96.656769 97.969139 
Q 96.656769 93.312179 88.621569 93.312179 
L 44.427969 93.312179 
Q 36.392769 93.312179 36.392769 97.969139 
L 36.392769 130.567859 
Q 36.392769 135.224819 44.427969 135.224819 
z
" clip-path="url(#p74a8ac3b35)" style="fill: #3775ba; stroke: #4d4d4d; stroke-width: 1.2; stroke-linejoin: miter"/>
   </g>
   <g id="patch_3">
    <path d="M 98.653798 114.268499 
Q 104.688924 114.268499 109.382409 114.268499 
" clip-path="url(#p74a8ac3b35)" style="fill: none; stroke: #4d4d4d; stroke-width: 1.2; stroke-linecap: round"/>
    <path d="M 103.382409 111.268499 
L 109.382409 114.268499 
L 103.382409 117.268499 
z
" clip-path="url(#p74a8ac3b35)" style="fill: #4d4d4d; stroke: #4d4d4d; stroke-width: 1.2; stroke-linecap: round"/>
   </g>
   <g id="patch_4">
    <path d="M 116.744769 135.224819 
L 160.938369 135.224819 
Q 168.973569 135.224819 168.973569 130.567859 
L 168.973569 97.969139 
Q 168.973569 93.312179 160.938369 93.312179 
L 116.744769 93.312179 
Q 108.709569 93.312179 108.709569 97.969139 
L 108.709569 130.567859 
Q 108.709569 135.224819 116.744769 135.224819 
z
" clip-path="url(#p74a8ac3b35)" style="fill: #3775ba; stroke: #4d4d4d; stroke-width: 1.2; stroke-linejoin: miter"/>
   </g>
   <g id="patch_5">
    <path d="M 170.970598 114.268499 
Q 177.005724 114.268499 181.699209 114.268499 
" clip-path="url(#p74a8ac3b35)" style="fill: none; stroke: #4d4d4d; stroke-width: 1.2; stroke-linecap: round"/>
    <path d="M 175.699209 111.268499 
L 181.699209 114.268499 
L 175.699209 117.268499 
z
" clip-path="url(#p74a8ac3b35)" style="fill: #4d4d4d; stroke: #4d4d4d; stroke-width: 1.2; stroke-linecap: round"/>
   </g>
   <g id="patch_6">
    <path d="M 189.061569 135.224819 
L 233.255169 135.224819 
Q 241.290369 135.224819 241.290369 130.567859 
L 241.290369 97.969139 
Q 241.290369 93.312179 233.255169 93.312179 
L 189.061569 93.312179 
Q 181.026369 93.312179 181.026369 97.969139 
L 181.026369 130.567859 
Q 181.026369 135.224819 189.061569 135.224819 
z
" clip-path="url(#p74a8ac3b35)" style="fill: #3775ba; stroke: #4d4d4d; stroke-width: 1.2; stroke-linejoin: miter"/>
   </g>
   <g id="patch_7">
    <path d="M 243.287398 114.268499 
Q 249.322524 114.268499 254.016009 114.268499 
" clip-path="url(#p74a8ac3b35)" style="fill: none; stroke: #4d4d4d; stroke-width: 1.2; stroke-linecap: round"/>
    <path d="M 248.016009 111.268499 
L 254.016009 114.268499 
L 248.016009 117.268499 
z
" clip-path="url(#p74a8ac3b35)" style="fill: #4d4d4d; stroke: #4d4d4d; stroke-width: 1.2; stroke-linecap: round"/>
   </g>
   <g id="patch_8">
    <path d="M 261.378369 135.224819 
L 305.571969 135.224819 
Q 313.607169 135.224819 313.607169 130.567859 
L 313.607169 97.969139 
Q 313.607169 93.312179 305.571969 93.312179 
L 261.378369 93.312179 
Q 253.343169 93.312179 253.343169 97.969139 
L 253.343169 130.567859 
Q 253.343169 135.224819 261.378369 135.224819 
z
" clip-path="url(#p74a8ac3b35)" style="fill: #3775ba; stroke: #4d4d4d; stroke-width: 1.2; stroke-linejoin: miter"/>
   </g>
   <g id="patch_9">
    <path d="M 315.604198 114.268499 
Q 321.639324 114.268499 326.332809 114.268499 
" clip-path="url(#p74a8ac3b35)" style="fill: none; stroke: #4d4d4d; stroke-width: 1.2; stroke-linecap: round"/>
    <path d="M 320.332809 111.268499 
L 326.332809 114.268499 
L 320.332809 117.268499 
z
" clip-path="url(#p74a8ac3b35)" style="fill: #4d4d4d; stroke: #4d4d4d; stroke-width: 1.2; stroke-linecap: round"/>
   </g>
   <g id="patch_10">
    <path d="M 333.695169 135.224819 
L 377.888769 135.224819 
Q 385.923969 135.224819 385.923969 130.567859 
L 385.923969 97.969139 
Q 385.923969 93.312179 377.888769 93.312179 
L 333.695169 93.312179 
Q 325.659969 93.312179 325.659969 97.969139 
L 325.659969 130.567859 
Q 325.659969 135.224819 333.695169 135.224819 
z
" clip-path="url(#p74a8ac3b35)" style="fill: #2e9e44; stroke: #4d4d4d; stroke-width: 1.2; stroke-linejoin: miter"/>
   </g>
   <g id="line2d_1">
    <path d="M 301.554369 228.364019 
L 301.554369 65.370419 
" clip-path="url(#p74a8ac3b35)" style="fill: none; stroke-dasharray: 5.55,2.4; stroke-dashoffset: 0; stroke: #2e9e44; stroke-width: 1.5"/>
   </g>
   <g id="text_1">
    <text style="font-weight: 700; font-size: 8px; font-family: 'Microsoft YaHei', 'Arial', 'Helvetica', 'DejaVu Sans', 'Liberation Sans', sans-serif; fill: #ffffff" transform="translate(58.524769 111.560124)">澄清</text>
    <text style="font-weight: 700; font-size: 8px; font-family: 'Microsoft YaHei', 'Arial', 'Helvetica', 'DejaVu Sans', 'Liberation Sans', sans-serif; fill: #ffffff" transform="translate(53.444769 121.344374)">Clarify</text>
   </g>
   <g id="text_2">
    <text style="font-size: 7px; font-family: 'Microsoft YaHei', 'Arial', 'Helvetica', 'DejaVu Sans', 'Liberation Sans', sans-serif; text-anchor: middle; fill: #272727" x="66.524769" y="164.105244" transform="rotate(-0 66.524769 164.105244)">深度 1</text>
   </g>
   <g id="text_3">
    <g id="patch_11">
     <path d="M 52.524769 233.352306 
L 80.524769 233.352306 
Q 81.364769 233.352306 81.364769 232.512306 
L 81.364769 216.721619 
Q 81.364769 215.881619 80.524769 215.881619 
L 52.524769 215.881619 
Q 51.684769 215.881619 51.684769 216.721619 
L 51.684769 232.512306 
Q 51.684769 233.352306 52.524769 233.352306 
z
" style="fill: #ffffff; stroke: #cfcece; stroke-linejoin: miter"/>
    </g>
    <text style="font-size: 7px; font-family: 'Microsoft YaHei', 'Arial', 'Helvetica', 'DejaVu Sans', 'Liberation Sans', sans-serif; fill: #272727" transform="translate(52.524769 222.317244)">具体错误</text>
    <text style="font-size: 7px; font-family: 'Microsoft YaHei', 'Arial', 'Helvetica', 'DejaVu Sans', 'Liberation Sans', sans-serif; fill: #272727" transform="translate(52.524769 230.77215)">是什么？</text>
   </g>
   <g id="text_4">
    <text style="font-weight: 700; font-size: 8px; font-family: 'Microsoft YaHei', 'Arial', 'Helvetica', 'DejaVu Sans', 'Liberation Sans', sans-serif; fill: #ffffff" transform="translate(122.841569 111.620874)">假设探查</text>
    <text style="font-weight: 700; font-size: 8px; font-family: 'Microsoft YaHei', 'Arial', 'Helvetica', 'DejaVu Sans', 'Liberation Sans', sans-serif; fill: #ffffff" transform="translate(116.267819 121.283624)">Hypothesis</text>
   </g>
   <g id="text_5">
    <text style="font-size: 7px; font-family: 'Microsoft YaHei', 'Arial', 'Helvetica', 'DejaVu Sans', 'Liberation Sans', sans-serif; text-anchor: middle; fill: #272727" x="138.841569" y="164.105244" transform="rotate(-0 138.841569 164.105244)">深度 2</text>
   </g>
   <g id="text_6">
    <g id="patch_12">
     <path d="M 117.841569 233.352306 
L 159.841569 233.352306 
Q 160.681569 233.352306 160.681569 232.512306 
L 160.681569 216.721619 
Q 160.681569 215.881619 159.841569 215.881619 
L 117.841569 215.881619 
Q 117.001569 215.881619 117.001569 216.721619 
L 117.001569 232.512306 
Q 117.001569 233.352306 117.841569 233.352306 
z
" style="fill: #ffffff; stroke: #cfcece; stroke-linejoin: miter"/>
    </g>
    <text style="font-size: 7px; font-family: 'Microsoft YaHei', 'Arial', 'Helvetica', 'DejaVu Sans', 'Liberation Sans', sans-serif; fill: #272727" transform="translate(121.341569 222.317244)">哪一行导致</text>
    <text style="font-size: 7px; font-family: 'Microsoft YaHei', 'Arial', 'Helvetica', 'DejaVu Sans', 'Liberation Sans', sans-serif; fill: #272727" transform="translate(117.841569 230.77215)">了这个结果？</text>
   </g>
   <g id="text_7">
    <text style="font-weight: 700; font-size: 8px; font-family: 'Microsoft YaHei', 'Arial', 'Helvetica', 'DejaVu Sans', 'Liberation Sans', sans-serif; fill: #ffffff" transform="translate(195.158369 111.640249)">证据检查</text>
    <text style="font-weight: 700; font-size: 8px; font-family: 'Microsoft YaHei', 'Arial', 'Helvetica', 'DejaVu Sans', 'Liberation Sans', sans-serif; fill: #ffffff" transform="translate(193.406494 121.302999)">Evidence</text>
   </g>
   <g id="text_8">
    <text style="font-size: 7px; font-family: 'Microsoft YaHei', 'Arial', 'Helvetica', 'DejaVu Sans', 'Liberation Sans', sans-serif; text-anchor: middle; fill: #272727" x="211.158369" y="164.105244" transform="rotate(-0 211.158369 164.105244)">深度 3</text>
   </g>
   <g id="text_9">
    <g id="patch_13">
     <path d="M 190.158369 233.352306 
L 232.158369 233.352306 
Q 232.998369 233.352306 232.998369 232.512306 
L 232.998369 216.721619 
Q 232.998369 215.881619 232.158369 215.881619 
L 190.158369 215.881619 
Q 189.318369 215.881619 189.318369 216.721619 
L 189.318369 232.512306 
Q 189.318369 233.352306 190.158369 233.352306 
z
" style="fill: #ffffff; stroke: #cfcece; stroke-linejoin: miter"/>
    </g>
    <text style="font-size: 7px; font-family: 'Microsoft YaHei', 'Arial', 'Helvetica', 'DejaVu Sans', 'Liberation Sans', sans-serif; fill: #272727" transform="translate(196.329306 222.317244)">改变 X 后</text>
    <text style="font-size: 7px; font-family: 'Microsoft YaHei', 'Arial', 'Helvetica', 'DejaVu Sans', 'Liberation Sans', sans-serif; fill: #272727" transform="translate(190.158369 230.77215)">输出会怎样？</text>
   </g>
   <g id="text_10">
    <text style="font-weight: 700; font-size: 8px; font-family: 'Microsoft YaHei', 'Arial', 'Helvetica', 'DejaVu Sans', 'Liberation Sans', sans-serif; fill: #ffffff" transform="translate(267.475169 111.640249)">反例验证</text>
    <text style="font-weight: 700; font-size: 8px; font-family: 'Microsoft YaHei', 'Arial', 'Helvetica', 'DejaVu Sans', 'Liberation Sans', sans-serif; fill: #ffffff" transform="translate(248.705794 121.302999)">Counter-example</text>
   </g>
   <g id="text_11">
    <text style="font-size: 7px; font-family: 'Microsoft YaHei', 'Arial', 'Helvetica', 'DejaVu Sans', 'Liberation Sans', sans-serif; text-anchor: middle; fill: #272727" x="283.475169" y="164.105244" transform="rotate(-0 283.475169 164.105244)">深度 4</text>
   </g>
   <g id="text_12">
    <g id="patch_14">
     <path d="M 265.975169 233.352306 
L 300.975169 233.352306 
Q 301.815169 233.352306 301.815169 232.512306 
L 301.815169 216.721619 
Q 301.815169 215.881619 300.975169 215.881619 
L 265.975169 215.881619 
Q 265.135169 215.881619 265.135169 216.721619 
L 265.135169 232.512306 
Q 265.135169 233.352306 265.975169 233.352306 
z
" style="fill: #ffffff; stroke: #cfcece; stroke-linejoin: miter"/>
    </g>
    <text style="font-size: 7px; font-family: 'Microsoft YaHei', 'Arial', 'Helvetica', 'DejaVu Sans', 'Liberation Sans', sans-serif; fill: #272727" transform="translate(265.975169 222.317244)">什么情况下</text>
    <text style="font-size: 7px; font-family: 'Microsoft YaHei', 'Arial', 'Helvetica', 'DejaVu Sans', 'Liberation Sans', sans-serif; fill: #272727" transform="translate(269.475169 230.77215)">会失败？</text>
   </g>
   <g id="text_13">
    <text style="font-weight: 700; font-size: 8px; font-family: 'Microsoft YaHei', 'Arial', 'Helvetica', 'DejaVu Sans', 'Liberation Sans', sans-serif; fill: #ffffff" transform="translate(347.791969 111.620874)">收敛</text>
    <text style="font-weight: 700; font-size: 8px; font-family: 'Microsoft YaHei', 'Arial', 'Helvetica', 'DejaVu Sans', 'Liberation Sans', sans-serif; fill: #ffffff" transform="translate(329.638219 121.283624)">Convergence</text>
   </g>
   <g id="text_14">
    <text style="font-size: 7px; font-family: 'Microsoft YaHei', 'Arial', 'Helvetica', 'DejaVu Sans', 'Liberation Sans', sans-serif; text-anchor: middle; fill: #272727" x="355.791969" y="164.105244" transform="rotate(-0 355.791969 164.105244)">深度 5</text>
   </g>
   <g id="text_15">
    <g id="patch_15">
     <path d="M 341.791969 233.352306 
L 369.791969 233.352306 
Q 370.631969 233.352306 370.631969 232.512306 
L 370.631969 216.721619 
Q 370.631969 215.881619 369.791969 215.881619 
L 341.791969 215.881619 
Q 340.951969 215.881619 340.951969 216.721619 
L 340.951969 232.512306 
Q 340.951969 233.352306 341.791969 233.352306 
z
" style="fill: #ffffff; stroke: #cfcece; stroke-linejoin: miter"/>
    </g>
    <text style="font-size: 7px; font-family: 'Microsoft YaHei', 'Arial', 'Helvetica', 'DejaVu Sans', 'Liberation Sans', sans-serif; fill: #272727" transform="translate(348.791969 222.317244)">总结</text>
    <text style="font-size: 7px; font-family: 'Microsoft YaHei', 'Arial', 'Helvetica', 'DejaVu Sans', 'Liberation Sans', sans-serif; fill: #272727" transform="translate(341.791969 230.77215)">正确写法</text>
   </g>
   <g id="text_16">
    <text style="font-size: 8px; font-family: 'Microsoft YaHei', 'Arial', 'Helvetica', 'DejaVu Sans', 'Liberation Sans', sans-serif; text-anchor: start; fill: #2e9e44" x="309.589569" y="58.384979" transform="rotate(-0 309.589569 58.384979)">可查看答案阈值</text>
   </g>
   <g id="text_17">
    <text style="font-weight: 700; font-size: 14px; font-family: 'Microsoft YaHei', 'Arial', 'Helvetica', 'DejaVu Sans', 'Liberation Sans', sans-serif; text-anchor: middle" x="205.131969" y="15.443219" transform="rotate(-0 205.131969 15.443219)">图 9：苏格拉底辅导五阶段流程</text>
   </g>
  </g>
 </g>
 <defs>
  <clipPath id="p74a8ac3b35">
   <rect x="4.251969" y="30.443219" width="401.76" height="232.848"/>
  </clipPath>
 </defs>
</svg>
